<?xml version="1.0" encoding="utf-8"?>
<!-- Generator: Adobe Illustrator 28.2.0, SVG Export Plug-In . SVG Version: 6.00 Build 0)  -->
<svg version="1.1" id="Layer_1" xmlns="http://www.w3.org/2000/svg" xmlns:xlink="http://www.w3.org/1999/xlink" x="0px" y="0px"
	 viewBox="0 0 792 52.3" style="enable-background:new 0 0 792 52.3;" xml:space="preserve">
<style type="text/css">
	.st0{fill:#333086;}
</style>
<path class="st0" d="M3.3,29.1c0,6.3,5.4,11.2,12,11.2c6.3,0,12.5-4.6,12.5-11.2V4.2l3.3-3.3H21l3.3,3.3v24.9c0,4.4-3.5,8-8,8
	c-4.5,0-8.5-3.5-8.5-8V4.2l3.3-3.3H0l3.3,3.3V29.1L3.3,29.1z M46.8,36.1V7.2l20.7,32.2h1.3V4.2l3.3-3.3H62.1l3.3,3.3v24.5L48,0.8h-8
	l3.3,3.3v31.9l-3.3,3.3h10.1L46.8,36.1L46.8,36.1z M82.7,0.8l3.1,3.1v32.4l-3.1,3.1h10.4l-3.1-3.1V3.9l3.1-3.1H82.7L82.7,0.8z
	 M112.7,0.8h-10.9l3.1,3.1l10.9,35.5h2l11.2-35.5l3.1-3.1h-9.3l3,3l-8.2,26.7l-7.9-26.7L112.7,0.8L112.7,0.8z M162.8,39.4v-7.1
	l-4.1,4.2h-11.7V20.3h8.7l3.1,3.1v-9l-3.1,3.1h-8.7V3.7h11.7l4.1,4.1v-7h-23.1l3,3.1v32.4l-3,3.1H162.8L162.8,39.4z M180.1,36.3
	V21.4h5.8l9.4,18h6.4l-3-3.1l-8.6-15.8c4.3-1.3,7.3-5.4,7.3-9c0-6.5-6.1-10.6-12.5-10.6h-12l3,3.1v32.4l-3,3.1h10.3L180.1,36.3
	L180.1,36.3z M180.1,3.7h4.7c4.1,0,7.4,3.5,7.4,7.7c0,4-3.3,7.1-7.4,7.1h-4.7V3.7L180.1,3.7z M229.7,28.7c0-3.8-1.8-6.1-3.6-7.4
	l-7.8-5.7c-2.8-2-4.3-4.6-4.3-6.6c0-4.1,3.5-5.5,5.6-5.5c1.1,0,1.9,0.5,2.5,0.5l3.4,3.7l3.6-5.4l-7.7-1.4c-0.5-0.1-0.8-0.2-1.8-0.2
	c-6.7,0-9.8,5.7-9.8,9.5c0,2.9,1.5,6.3,5,8.8l7.9,5.7c2.2,1.5,2.7,3.7,2.7,5.6c0,3.3-2,6.8-6.4,6.8c-1.1,0-2-0.2-2.7-0.5l-3.7-4.3
	l-3.3,6l7.4,1.4c0,0,1.2,0.3,2.3,0.3C223.6,39.9,229.7,36,229.7,28.7 M240.9,0.8l3.1,3.1v32.4l-3.1,3.1h10.4l-3.1-3.1V3.9l3.1-3.1
	H240.9L240.9,0.8z M275.9,36.3V3.7h7.3l4.1,4.1v-7h-27.2v7l4.2-4.1h7.3v32.6l-3,3.1H279L275.9,36.3L275.9,36.3z M296.3,3.9l9.7,17.6
	v14.8l-3.1,3.1h10.4l-3.1-3.1V21.5L320.2,4l3.2-3.1h-9.6l3,3l-8.1,14.4L301,3.9l3-3h-10.9L296.3,3.9L296.3,3.9z M361.5,15
	c-1.4,0-3.6,0.7-5.9,2c-3.7,2.2-7.8,7.3-7.8,14.9c0,3.8,1.8,8,6.8,8c2.4,0,5.8-1.6,8.1-3.6c3.6-3.3,5.7-8.8,5.7-13.7
	C368.5,18,366.1,15,361.5,15 M352.2,30.5c0-8,4.1-12.4,5.8-13.1c0.5-0.2,1.2-0.4,1.8-0.4c2.7,0,4.3,2.1,4.3,6.2
	c0.1,7.1-3.6,13.5-5.9,14.2c-0.4,0.2-1.1,0.4-1.7,0.4C353.5,37.8,352.2,34.6,352.2,30.5 M376.7,16.3l-1.5,1.4l0.2,0.5h4.5
	c-0.7,4.9-1.4,9.1-2.4,16c-1.5,10.2-2.7,13.7-3.8,14.6c-0.3,0.3-0.9,0.5-1.4,0.5c-0.7,0-1.7-0.5-2.4-0.8c-0.6-0.3-1.2,0.1-1.5,0.4
	c-0.4,0.5-0.9,1.2-0.9,1.8c0,1.1,1.4,1.6,2.3,1.6c1,0,3.6-0.9,6-3.7c1.8-2.3,4.3-7.5,6.5-19.8c0.4-2.3,0.8-4.6,1.7-10.5l5.5-0.5
	l1.2-1.4h-6.4c1.6-10,3-13.1,5.3-13.1c1.6,0,3,0.6,4.2,1.8c0.4,0.4,1,0.4,1.5-0.1c0.4-0.4,1.1-1.3,1.1-2c0.1-1.1-1.4-2.3-3.3-2.3
	c-3.2,0-6.5,1.8-8.8,4.6c-2.1,2.5-3.5,6.7-4.3,11.1H376.7L376.7,16.3z M438.4,39.4l8.8-27.9l8.6,27.9h2l11.2-35.5l3.1-3.1h-9.3l3,3
	l-8.2,26.7l-7.9-26.7l3-3h-10.9l3.1,3.1l0.8,2.5l-7.4,24l-7.9-26.7l3-3h-10.9l3.1,3.1l10.9,35.5H438.4L438.4,39.4z M479.4,36.4
	l2.8-8.2H495l2.7,8.2l-3,3h10.9l-3.1-3.1l-12-35.4h-2l-12.2,35.4l-3.1,3.1h9.3L479.4,36.4L479.4,36.4z M488.7,9.4l5.3,15.9h-10.8
	L488.7,9.4L488.7,9.4z M531.9,28.7c0-3.8-1.8-6.1-3.6-7.4l-7.8-5.7c-2.8-2-4.3-4.6-4.3-6.6c0-4.1,3.5-5.5,5.6-5.5
	c1.1,0,1.9,0.5,2.5,0.5l3.4,3.7l3.6-5.4l-7.7-1.4c-0.5-0.1-0.8-0.2-1.8-0.2c-6.7,0-9.8,5.7-9.8,9.5c0,2.9,1.5,6.3,5,8.8l7.9,5.7
	c2.2,1.5,2.7,3.7,2.7,5.6c0,3.3-2,6.8-6.4,6.8c-1.1,0-2-0.2-2.7-0.5l-3.7-4.3l-3.3,6l7.4,1.4c0,0,1.2,0.3,2.3,0.3
	C525.8,39.9,531.9,36,531.9,28.7 M549.3,20.1h16.2v16.3l-3.1,3.1h10.4l-3.1-3.1V3.9l3.1-3.1h-10.4l3.1,3.1v13.3h-16.2V3.9l3.1-3.1
	h-10.3l3,3.1v32.4l-3,3.1h10.3l-3.1-3.1V20.1L549.3,20.1z M583.6,0.8l3.1,3.1v32.4l-3.1,3.1H594l-3.1-3.1V3.9l3.1-3.1H583.6
	L583.6,0.8z M611.3,36.1V7.2l20.3,32.2l1.7,0V4.2l3.3-3.3h-10.1l3.3,3.3v24.5L612.6,0.8h-8l3.3,3.3v31.9l-3.3,3.3h10.1L611.3,36.1
	L611.3,36.1z M668.6,21.9v12.4c-0.9,0.9-2.7,2.7-6.3,2.7c-8.6,0-12.9-8.6-12.9-16.9c0-8.4,5.4-16.9,12.9-16.9c2,0,3.4,0.5,4.7,1.8
	l4.3,4.2V2.5c-2.3-1.2-4.6-2.2-9-2.2c-10.5,0-17.9,9.4-17.9,19.8c0,10.2,7.4,19.8,17.9,19.8c6,0,8.5-1.4,10.6-2.8V21.9l3-3.1h-10.3
	L668.6,21.9L668.6,21.9z M699.4,36.3V3.7h7.3l4.1,4.1v-7h-27.2v7l4.2-4.1h7.3v32.6l-3,3.1h10.3L699.4,36.3L699.4,36.3z M719.1,20.1
	c0,9.8,5.6,20.1,15.4,20.1c9.9,0,15.5-10.3,15.5-20.1c0-9.8-5.6-20.1-15.5-20.1C724.7,0,719.1,10.3,719.1,20.1 M734.5,37.3
	c-7.7,0-10.4-9.2-10.4-17.2c0-8,2.7-17.2,10.4-17.2c7.8,0,10.5,9.2,10.5,17.2C745,28.1,742.3,37.3,734.5,37.3 M766.6,36.1V7.2
	l20.1,32.2h2V4.2l3.3-3.3h-10.1l3.3,3.3v24.5L767.8,0.8h-8l3.3,3.3v31.9l-3.3,3.3h10.1L766.6,36.1L766.6,36.1z"/>
</svg>
